<?xml version="1.0" standalone="no"?>
<!DOCTYPE svg PUBLIC "-//W3C//DTD SVG 1.1//EN" "http://www.w3.org/Graphics/SVG/1.1/DTD/svg11.dtd">

<svg width="135" height="50" viewBox="0 0 135 50" 
  xmlns="http://www.w3.org/2000/svg"
  xmlns:xlink="http://www.w3.org/1999/xlink">


<polyline points="0.0, 28.262005608225536 0.7988165680473372, 28.301743355935237 1.5976331360946745, 31.4602760276667 2.396449704142012, 31.113926359219956 3.195266272189349, 27.67886086236834 3.994082840236686, 28.5715366658313 4.792899408284024, 28.41670997789664 5.591715976331361, 34.081597842546444 6.390532544378698, 32.395236295808964 7.189349112426036, 31.292219396018904 7.988165680473372, 28.34847861178359 8.78698224852071, 29.254150717499154 9.585798816568047, 32.171506759143284 10.384615384615385, 38.44581424600812 11.183431952662723, 37.64050557327092 11.982248520710058, 39.969424553099635 12.781065088757396, 49.2365728294986 13.579881656804734, 46.83756793173195 14.378698224852071, 35.11698733578901 15.177514792899409, 33.25011560483033 15.976331360946745, 39.85711668112907 16.775147928994084, 41.52776746758273 17.57396449704142, 34.051181365894074 18.37278106508876, 28.84989357296723 19.171597633136095, 30.3862951564501 19.970414201183434, 27.977837935033946 20.76923076923077, 29.815854089337822 21.56804733727811, 30.92583818363355 22.366863905325445, 18.479205468688587 23.16568047337278, 9.624595144766348 23.964497041420117, 15.311158530763686 24.763313609467456, 11.900520353047517 25.562130177514792, 12.096386602761447 26.36094674556213, 12.312342508674291 27.159763313609467, 10.111009457219337 27.958579881656807, 10.171655620412642 28.757396449704142, 9.794766801535468 29.55621301775148, 7.779739033433161 30.355029585798817, 9.793747608703399 31.153846153846157, 5.367586771898288 31.95266272189349, 5.640889105070659 32.751479289940825, 4.57586463153492 33.55029585798817, 4.307227639202744 34.349112426035504, 9.90678423396081 35.14792899408284, 8.748488692076078 35.94674556213018, 3.0914059394387388 36.74556213017752, 0.0 37.54437869822485, 6.5904813038859364 38.34319526627219, 8.188143931212432 39.142011834319526, 9.238007327782531 39.94082840236687, 9.948672288593418 40.7396449704142, 16.67615533464484 41.53846153846154, 13.838906201294696 42.337278106508876, 17.062977588143973 43.13609467455622, 13.267111161378658 43.93491124260355, 11.033910609014166 44.73372781065089, 15.785019778405719 45.532544378698226, 14.322429879568263 46.33136094674556, 18.909969331739255 47.1301775147929, 17.961549672570598 47.928994082840234, 15.145877575320267 48.72781065088758, 12.92052161390657 49.52662721893491, 14.206928381318226 50.32544378698225, 15.839770253513349 51.124260355029584, 17.582998885550374 51.92307692307693, 26.777719998277234 52.72189349112426, 27.81836055362041 53.5207100591716, 28.327633925363145 54.319526627218934, 30.12029073547521 55.11834319526627, 11.387004223086352 55.91715976331361, 14.138114089302414 56.71597633136094, 15.222917552543965 57.514792899408285, 17.69669429764823 58.31360946745562, 13.266279956813975 59.11242603550296, 15.52999761868253 59.91124260355029, 10.729554645815409 60.710059171597635, 12.893743285282902 61.50887573964497, 16.591505613017727 62.307692307692314, 14.55454029044213 63.10650887573964, 13.231065507656389 63.90532544378698, 16.059886467328475 64.70414201183432, 20.30218051588139 65.50295857988165, 24.45750702033581 66.30177514792899, 22.869137204471667 67.10059171597634, 21.927671755589305 67.89940828402366, 24.038998838316314 68.69822485207101, 17.849346841847368 69.49704142011834, 25.109998294099363 70.29585798816568, 28.97165383018889 71.09467455621302, 26.663953488805138 71.89349112426036, 28.072660604147053 72.6923076923077, 26.3994165648814 73.49112426035504, 26.95352484254573 74.28994082840237, 34.511718532195445 75.0887573964497, 37.73860534191287 75.88757396449704, 33.695018057518986 76.68639053254438, 37.69091236024245 77.48520710059172, 43.902422789515335 78.28402366863905, 45.35054226962503 79.0828402366864, 47.79774837851696 79.88165680473374, 39.90748931347868 80.68047337278107, 43.04055337675371 81.4792899408284, 43.60370388870938 82.27810650887574, 44.42083058669903 83.07692307692308, 36.963798384890694 83.87573964497041, 35.791455521261675 84.67455621301775, 38.106825461476326 85.4733727810651, 38.52912811323796 86.27218934911244, 40.566311795995254 87.07100591715975, 40.53535348996065 87.8698224852071, 44.22237490786438 88.66863905325444, 40.229290035585166 89.46745562130178, 37.64955115654887 90.26627218934911, 39.0571390423547 91.06508875739645, 33.70115040174602 91.8639053254438, 30.901767889794723 92.66272189349112, 22.378158078891243 93.46153846153845, 36.83265594574445 94.2603550295858, 42.62300603518295 95.05917159763314, 44.63585111051928 95.85798816568047, 46.148603972211006 96.65680473372781, 43.19756008007005 97.45562130177515, 40.05252630757081 98.2544378698225, 38.838335073994195 99.05325443786982, 41.507189745135484 99.85207100591715, 44.602906078049884 100.6508875739645, 50.0 101.44970414201183, 43.522965341225266 102.24852071005917, 42.93969038514656 103.04733727810651, 39.27824186614171 103.84615384615385, 37.83327401660073 104.64497041420118, 35.60234280323414 105.44378698224853, 37.41617608363577 106.24260355029585, 40.09797766498672 107.0414201183432, 40.66538167173008 107.84023668639053, 37.70290991433882 108.63905325443787, 37.31926164487188 109.43786982248521, 36.99790970516591 110.23668639053254, 39.06999439634302 111.03550295857988, 36.03607780909627 111.83431952662723, 37.92790498952749 112.63313609467457, 36.35891645292739 113.43195266272188, 34.70609717166885 114.23076923076923, 30.36666302164544 115.02958579881657, 34.40713481075433 115.82840236686391, 33.671206806116054 116.62721893491124, 36.72735208987235 117.42603550295858, 34.65015929237601 118.22485207100593, 33.24785332398311 119.02366863905324, 31.137756433510617 119.82248520710058, 28.704144721061148 120.62130177514793, 27.687512049998997 121.42011834319527, 29.47901164925895 122.2189349112426, 29.680774853722564 123.01775147928994, 27.709454063259205 123.81656804733728, 31.596556313765994 124.61538461538463, 31.79568994981877 125.41420118343194, 29.43629183625272 126.21301775147928, 27.27217388127898 127.01183431952663, 30.547812464507018 127.81065088757396, 32.44560259153857 128.60946745562129, 32.321349473336916 129.40828402366864, 29.15375695556405 130.20710059171597, 25.703792685818115 131.0059171597633, 23.505819339332582 131.80473372781066, 21.65298643488255 132.60355029585799, 23.715924985077923 133.40236686390534, 21.758579844594806 134.20118343195267, 17.575244854027932" fill="none" stroke="#57bd0f" stroke-width="1.25"/>

</svg>